<svg width="216" height="252" viewBox="0 0 216 252" fill="none" xmlns="http://www.w3.org/2000/svg" xmlns:xlink="http://www.w3.org/1999/xlink">
<g clip-path="url(#clip0)">
<path opacity="0.22" d="M108.045 205.156C167.717 205.156 216.09 198.973 216.09 191.347C216.09 183.72 167.717 177.537 108.045 177.537C48.3735 177.537 0 183.72 0 191.347C0 198.973 48.3735 205.156 108.045 205.156Z" fill="#FFB1A8"/>
<path d="M160.486 199.831H55.5144C40.7769 199.831 28.7518 187.917 28.7518 173.115V171.851C28.7518 165.984 33.5437 161.201 39.4207 161.201H174.771C181.552 161.201 186.977 166.616 186.977 173.385C186.977 188.007 175.133 199.831 160.486 199.831Z" fill="#B14545"/>
<path opacity="0.32" d="M84.2662 184.758H135.35C141.86 184.758 147.104 189.993 147.104 196.491H72.4219C72.4219 190.083 77.7564 184.758 84.2662 184.758Z" fill="#4E180C"/>
<path d="M117.177 222.576C92.7652 213.64 68.3533 204.524 43.7606 196.13C40.2344 194.957 36.437 193.964 33.5437 191.437C30.7409 189.271 28.9326 186.202 27.6668 182.862C26.4914 179.703 25.7681 176.364 26.1298 173.024C26.8531 165.984 32.9108 161.201 39.2399 159.034C45.8401 156.778 53.2541 157.771 59.131 161.562L130.468 208.135L117.177 222.576Z" fill="#FFCFC0"/>
<path opacity="0.32" d="M108.226 193.693L83.5429 210.301L77.9372 208.225L108.226 193.693Z" fill="#FF8E77"/>
<path d="M113.47 221.312L119.98 199.741L144.934 214.182L146.833 214.994C149.003 216.077 149.907 218.695 148.913 220.951L136.526 248.48C135.802 250.014 134.446 251.097 132.728 251.368L128.931 252C128.298 252.09 127.756 251.639 127.756 251.007L128.117 226.006L113.47 221.312Z" fill="#FFA06C"/>
<path opacity="0.81" d="M138.244 220.229C137.972 217.07 139.6 214.182 142.131 212.557L144.844 214.182L146.743 214.994C148.913 216.077 149.817 218.695 148.822 220.951L145.748 227.811C141.77 227.54 138.515 224.381 138.244 220.229Z" fill="#F2834C"/>
<path d="M122.692 201.185L115.188 221.673C114.917 222.305 114.193 222.666 113.56 222.486L112.476 222.215C111.752 222.034 111.3 221.222 111.571 220.41L119.166 199.921C119.437 199.289 120.161 198.928 120.794 199.109L121.788 199.38C122.602 199.65 122.964 200.463 122.692 201.185Z" fill="#E7693B"/>
<path d="M125.857 203.532L118.985 223.298" stroke="#FFF7F8" stroke-miterlimit="10" stroke-linecap="round"/>
<path d="M129.473 204.795L122.692 224.562" stroke="#FFF7F8" stroke-miterlimit="10" stroke-linecap="round"/>
<path d="M97.9188 222.576C122.331 213.64 146.743 204.524 171.335 196.13C174.861 194.957 178.659 193.964 181.552 191.437C184.355 189.271 186.163 186.202 187.429 182.862C188.604 179.703 189.328 176.364 188.966 173.024C188.243 165.984 182.185 161.201 175.856 159.034C169.256 156.778 161.842 157.771 155.965 161.562L85.3512 208.947L97.9188 222.576Z" fill="#FFCFC0"/>
<path d="M112.385 217.341L104.338 196.311L80.4688 212.467L78.5701 213.46C76.4906 214.724 75.7673 217.431 76.9427 219.507L91.3185 246.043C92.1323 247.487 93.5789 248.48 95.2968 248.66L99.0942 249.021C99.7271 249.112 100.27 248.57 100.179 247.938L98.0092 223.027L112.385 217.341Z" fill="#FFA06C"/>
<path opacity="0.81" d="M87.5211 217.973C87.5211 214.814 85.7129 212.016 83.0908 210.662L80.4688 212.467L78.5701 213.46C76.4906 214.724 75.7673 217.431 76.9427 219.507L80.5592 226.186C84.5375 225.554 87.5211 222.125 87.5211 217.973Z" fill="#F2834C"/>
<path d="M101.716 197.936L110.667 217.792C110.938 218.424 111.662 218.785 112.385 218.514L113.47 218.153C114.193 217.883 114.555 217.07 114.284 216.348L105.242 196.491C104.971 195.86 104.157 195.499 103.524 195.769L102.62 196.13C101.716 196.311 101.355 197.213 101.716 197.936Z" fill="#E7693B"/>
<path d="M98.7325 200.463L106.96 219.688" stroke="#FFF7F8" stroke-miterlimit="10" stroke-linecap="round"/>
<path d="M95.2064 201.997L103.434 221.222" stroke="#FFF7F8" stroke-miterlimit="10" stroke-linecap="round"/>
<path opacity="0.32" d="M107.593 219.056L135.622 208.766L138.877 210.662L107.593 219.056Z" fill="#B14545"/>
<path d="M179.021 141.163L165.639 122.299L146.471 134.213V134.936L158.135 152.716C162.023 158.673 169.979 160.298 175.856 156.417C181.01 153.168 182.456 146.308 179.021 141.163Z" fill="#FFCFC0"/>
<path d="M69.7999 134.575L52.8924 124.646V153.438C52.7116 159.215 57.5036 164.089 63.6518 164.179C67.5396 164.269 71.0657 162.735 73.4165 160.208H69.3479L69.7999 134.575Z" fill="#FFCFC0"/>
<path opacity="0.32" d="M66.545 133.13L56.0569 144.503L71.5178 135.206L66.545 133.13Z" fill="#FF8E77"/>
<path d="M144.301 89.7164C141.046 83.6691 134.717 79.6075 127.394 79.6075H86.2553C80.4688 79.6075 75.4056 82.6763 72.6932 87.2794L49.9992 116.974C48.3717 119.05 48.9142 122.119 51.1746 123.563L52.8924 124.646L69.7999 135.116L69.3478 162.284H73.4165H146.471L146.562 134.936V134.214L165.73 122.299C166.905 121.577 167.176 120.043 166.362 118.96L144.301 89.7164Z" fill="#3B3047"/>
<path d="M79.0222 131.054V119.05L69.7999 135.206L79.0222 131.054Z" fill="#312A3A"/>
<path d="M151.354 62.0072C149.455 59.2994 146.2 56.0502 141.318 51.5373L140.685 48.8295C141.318 47.3854 141.77 45.9413 142.222 44.4069C144.573 34.4785 141.137 24.5502 133.994 18.2321C134.717 17.149 135.26 15.8854 135.622 14.5315C137.159 8.21349 133.18 1.80518 126.851 0.270795C120.522 -1.26359 114.103 2.70776 112.566 9.02581C112.385 9.92839 112.295 10.831 112.295 11.8238C101.807 13.3582 92.8556 21.1204 90.2336 31.9513C89.9623 33.1247 89.7815 34.298 89.6911 35.3811L87.0691 37.9986C82.6388 38.8109 79.203 39.6232 76.4906 40.4356C72.2411 41.6992 70.9753 46.8439 73.8686 50.1834C75.044 51.447 75.9481 53.3424 76.4906 55.8697C78.2989 64.5344 94.3022 71.394 109.582 69.2278C121.065 76.629 135.441 77.9828 140.866 72.2063C143.397 69.4986 145.929 68.596 148.099 68.3252C151.354 68.0545 153.162 64.6247 151.354 62.0072Z" fill="#B14545"/>
<path d="M131.915 51.086H131.734L133.09 44.7679L123.958 42.6017C123.868 42.6017 123.777 42.5115 123.868 42.4212L124.953 37.6375C124.953 37.457 124.772 37.3668 124.681 37.457L121.336 40.9771C121.065 41.5186 120.432 41.6991 119.89 41.6089C119.89 41.6089 116.454 40.7966 114.645 40.255C114.103 40.0745 113.741 39.4427 114.013 38.9012L116.273 33.6662C116.002 34.2077 115.821 34.659 115.821 34.7493C113.832 37.1863 110.848 38.5401 110.848 38.5401C110.486 38.9914 109.944 39.1719 109.401 39.0817L101.445 37.1863C101.445 37.1863 101.264 37.096 100.993 37.096C100.36 36.9155 99.9079 36.2837 100.089 35.5616C100.089 35.5616 101.535 28.9728 101.445 29.1533L98.8229 35.2908C98.5517 36.0129 97.738 36.3739 97.0147 36.1934H96.9242C96.8338 36.4642 96.7434 36.735 96.7434 36.9155L95.4776 42.5115C91.861 42.0602 88.4253 44.4069 87.5211 48.0172C86.617 51.7178 88.8774 55.5086 92.4939 56.5917C91.5898 62.1877 93.3981 67.6934 96.9242 71.6648V82.7665C96.9242 88.8138 101.807 93.6877 107.864 93.6877C113.922 93.6877 118.805 88.8138 118.805 82.7665V76.0874C123.235 73.9212 126.851 70.1304 128.479 65.1662C132.367 66.0688 136.255 63.6318 137.159 59.841C138.153 55.9599 135.712 51.9885 131.915 51.086Z" fill="#FFCFC0"/>
<path d="M91.7706 46.3926L93.1268 50.0932L90.7761 51.2665" stroke="#FF8E77" stroke-miterlimit="10" stroke-linecap="round"/>
<path d="M134.446 56.5917L131.553 59.2995L133.18 61.4657" stroke="#FF8E77" stroke-miterlimit="10" stroke-linecap="round"/>
<path d="M107.955 69.3181C107.955 69.3181 109.854 68.4155 111.3 69.8596" stroke="#FF8E77" stroke-miterlimit="10" stroke-linecap="round"/>
<path d="M119.166 47.4757C119.347 47.927 119.799 48.1977 120.251 48.5588C120.703 48.9198 121.155 49.1906 121.517 49.5516C121.879 49.8224 122.24 50.1834 122.692 50.6347C123.054 50.9957 123.506 51.3568 123.958 51.5373C124.41 51.6275 124.862 51.3568 124.862 50.6347C124.862 49.9126 124.41 48.649 123.235 47.6562C122.059 46.6634 120.703 46.3926 119.98 46.5731C119.166 46.5731 118.985 47.0244 119.166 47.4757Z" fill="#B14545"/>
<path d="M101.535 46.2121C101.987 46.3023 102.53 46.0315 103.072 45.9413C103.615 45.7608 104.067 45.5803 104.519 45.49C104.971 45.3997 105.514 45.2192 106.056 45.129C106.599 45.0387 107.141 44.9484 107.503 44.5874C107.864 44.3166 107.864 43.7751 107.231 43.3238C106.599 42.8725 105.333 42.6017 103.796 42.9628C102.259 43.4141 101.355 44.3166 101.083 45.0387C100.812 45.6705 101.083 46.1218 101.535 46.2121Z" fill="#B14545"/>
<path d="M111.933 56.9527C112.566 57.1332 113.199 57.043 113.741 56.6819C114.374 56.3209 114.826 55.7794 115.007 55.1476L115.188 54.5158C115.459 53.6132 115.007 52.7106 114.193 52.3496L113.741 52.169L114.736 48.1977C114.736 48.0172 114.645 47.9269 114.555 47.8367C114.374 47.8367 114.284 47.9269 114.193 48.0172L113.108 52.4398L113.922 52.8009C114.555 53.0716 114.826 53.7034 114.645 54.3352L114.465 54.967C114.284 55.5086 114.013 55.9599 113.47 56.2307C113.018 56.5014 112.385 56.5917 111.933 56.4112L109.582 55.6891C109.401 55.6891 109.311 55.6891 109.221 55.8696C109.221 56.0501 109.221 56.1404 109.401 56.2307L111.752 56.9527C111.843 56.9527 111.933 56.9527 111.933 56.9527Z" fill="#FF8E77" stroke="#FF8E77" stroke-width="0.25" stroke-miterlimit="10"/>
<path d="M104.7 55.3281C104.7 55.3281 106.779 58.1261 109.401 60.1117C112.023 62.0071 107.322 65.6175 103.163 62.9097C99.0038 60.2922 102.62 53.6132 104.7 55.3281Z" fill="#FFF7F8"/>
<path d="M120.884 54.9671C120.884 54.9671 119.709 53.7035 117.629 54.1548" stroke="#441B14" stroke-miterlimit="10" stroke-linecap="round"/>
<path d="M105.966 51.447C105.966 51.447 104.79 50.1834 102.711 50.6347" stroke="#441B14" stroke-miterlimit="10" stroke-linecap="round"/>
<path d="M92.5844 53.7937C92.5844 54.1547 92.3131 54.4255 91.9514 54.4255C91.5898 54.4255 91.3185 54.1547 91.3185 53.7937C91.3185 53.4326 91.5898 53.1619 91.9514 53.1619C92.3131 53.1619 92.5844 53.5229 92.5844 53.7937Z" fill="#FFF7F8"/>
<path d="M131.101 62.7292C131.101 63.0902 130.83 63.361 130.468 63.361C130.106 63.361 129.835 63.0902 129.835 62.7292C129.835 62.3682 130.106 62.0974 130.468 62.0974C130.83 62.0974 131.101 62.3682 131.101 62.7292Z" fill="#FFF7F8"/>
<path opacity="0.32" d="M128.208 65.0759C124.772 73.0186 116.183 77.712 107.412 75.8166C98.3709 73.8309 92.4035 65.6175 92.946 56.6819C92.8556 56.6819 92.6748 56.5917 92.5843 56.5917C91.6802 62.2779 93.5789 67.7837 97.1955 71.755C97.0147 76.8997 100.631 81.6834 105.785 82.7665C110.938 83.8496 116.092 81.1418 118.081 76.4484C122.873 74.4627 126.851 70.4011 128.569 65.1662L128.208 65.0759Z" fill="#FF8E77"/>
<path d="M130.016 98.4714C131.553 94.7708 132.548 91.2508 133.09 89.1748C133.361 88.0917 132.819 86.9184 131.824 86.4671C130.649 85.9256 128.931 85.023 126.851 84.2107C125.314 82.0445 123.325 80.3296 121.065 79.066C120.522 78.7952 119.98 78.4341 119.347 78.2536C117.267 77.3511 115.098 76.8095 112.837 76.7193C111.933 76.629 110.938 76.7193 109.944 76.7193C108.316 76.8095 106.689 77.1705 105.152 77.7121C104.881 77.3511 104.429 76.99 103.977 76.99C103.796 76.99 103.615 76.99 103.525 77.1705C103.434 77.2608 103.434 77.4413 103.434 77.6218C103.434 77.8926 103.434 78.1634 103.434 78.4342C103.434 78.4342 103.344 78.4342 103.344 78.5244C102.801 77.8926 102.168 77.5316 101.355 77.3511C101.083 77.2608 100.631 77.2608 100.541 77.5316C100.45 77.7121 100.45 77.8926 100.45 78.0731C100.541 78.5244 100.722 79.066 100.902 79.5172C100.179 79.427 99.5463 79.3367 98.823 79.1562C98.3709 79.066 97.8284 78.9757 97.3763 79.2465C96.653 79.6075 96.3818 80.6003 96.653 81.3224C96.8338 81.6834 97.1051 82.0445 97.4667 82.3152C92.4939 86.8281 90.1432 93.417 91.1377 99.6448C90.4144 104.519 90.4144 109.212 90.5952 112.01C90.6857 113.635 91.861 114.989 93.4885 115.169C96.3818 115.53 101.355 116.072 106.418 115.801V152.536C106.418 152.807 106.418 153.077 106.418 153.348H105.966C102.078 153.348 98.823 156.507 98.9134 160.479C98.9134 161.381 99.7271 162.193 100.722 162.193H112.837C114.103 162.735 115.459 163.006 116.815 163.006H138.696C138.424 164.54 137.068 165.804 135.441 165.804H113.018C108.859 165.804 105.514 169.143 105.514 173.295V174.288C105.514 178.259 108.769 181.509 112.747 181.509H118.081C119.799 181.509 121.246 180.065 121.246 178.35C121.246 176.635 119.799 175.191 118.081 175.191H112.747C112.204 175.191 111.843 174.83 111.843 174.288V173.295C111.843 172.663 112.385 172.122 113.018 172.122H135.531C140.866 172.122 145.115 167.789 145.115 162.554C145.115 162.374 145.115 162.284 145.115 162.103C151.625 159.847 156.327 153.619 156.327 146.308V137.192C156.417 119.411 145.477 104.428 130.016 98.4714Z" fill="#FFA06C"/>
<path d="M142.855 129.34C144.03 137.373 148.099 144.142 153.795 148.655C155.513 145.135 156.417 141.163 156.417 136.921C156.417 126.271 152.348 117.155 146.2 109.844C142.945 115.62 141.77 122.119 142.855 129.34Z" fill="#F2834C"/>
<path d="M111.752 153.438L109.311 143.6C107.864 137.734 109.311 131.506 113.199 126.722C114.736 124.827 116.906 123.563 119.166 123.112C115.188 122.209 111.029 123.653 108.497 126.722C104.609 131.506 103.163 137.734 104.609 143.6L106.96 153.168H109.582C110.396 153.168 111.119 153.258 111.752 153.438Z" fill="#F2834C"/>
<path d="M133.18 88.7235C133.18 88.904 133.18 88.9943 133.09 89.1748C131.824 94.3195 127.665 108.309 119.437 112.732C111.752 116.884 99.0942 115.711 93.5789 114.989C92.5843 114.808 91.6802 114.266 91.2281 113.454C91.3185 115.079 92.4939 116.433 94.1214 116.613C99.6367 117.335 112.295 118.509 119.98 114.357C128.117 109.934 132.367 95.9441 133.633 90.7994C133.813 90.0774 133.633 89.2651 133.18 88.7235Z" fill="#F2834C"/>
<path d="M112.837 76.629V76.268C113.018 74.2823 114.645 72.6576 116.635 72.5674C118.081 74.1018 118.985 76.0874 119.347 78.2536C119.889 78.5244 120.522 78.7952 121.065 79.0659C120.884 74.9141 119.257 71.033 116.454 67.9642C113.108 68.1447 110.396 70.7622 110.125 74.1018L109.944 76.7192C110.938 76.629 111.933 76.5387 112.837 76.629Z" fill="#F2834C"/>
<path d="M112.837 76.2679V76.629C115.098 76.8095 117.358 77.2608 119.347 78.1634C119.076 76.0874 118.081 74.1018 116.635 72.4771C114.645 72.6576 113.018 74.192 112.837 76.2679Z" fill="#FFCFC0"/>
<path d="M88.3349 88.9943C89.6911 87.1892 92.2227 86.7379 94.2118 87.9112L94.7543 88.2723C95.2968 87.2794 95.9297 86.3769 96.5626 85.5645L95.0255 84.662C91.7706 82.7665 87.6116 83.4886 85.3512 86.4671C86.2553 90.619 88.4253 94.3196 91.6802 97.1175C91.7706 96.576 91.9514 96.0344 92.0419 95.4026C90.1432 93.6877 88.8774 91.5216 88.3349 88.9943Z" fill="#FFA06C"/>
<path d="M88.3349 88.9944C88.8774 91.4313 90.1432 93.6878 92.0419 95.4027C92.6748 92.9657 93.5789 90.5287 94.7543 88.2723L94.2118 87.9113C92.2227 86.7379 89.6911 87.1892 88.3349 88.9944Z" fill="#FFCFC0"/>
<path d="M131.824 86.3768C130.649 85.8353 128.931 85.023 126.851 84.1204C125.224 81.2322 121.065 78.9757 121.065 78.9757L120.07 79.3367C117.539 80.1491 116.273 83.0373 117.539 85.384C117.539 85.384 117.539 85.384 117.539 85.4743C120.342 90.619 126.761 92.5144 131.915 89.8066C132.276 89.6261 132.638 89.3554 133 89.0846C133.271 88.0015 132.819 86.9184 131.824 86.3768Z" fill="#F2834C"/>
<path d="M121.427 91.1605C122.783 93.5975 121.788 96.6663 119.347 98.0201C116.906 99.374 113.832 98.3812 112.476 95.9442C111.119 93.5073 112.114 90.4385 114.555 89.0846C116.996 87.821 120.07 88.7236 121.427 91.1605Z" fill="#F2834C"/>
<path d="M106.87 102.172C106.87 102.172 107.955 103.797 109.221 103.075C110.577 102.352 110.577 101.54 110.215 100.367" stroke="#8F1922" stroke-width="0.5" stroke-miterlimit="10" stroke-linecap="round"/>
<path d="M110.306 100.367C110.306 100.367 111.391 101.991 112.656 101.269C114.013 100.547 114.013 99.7351 113.651 98.5617" stroke="#8F1922" stroke-width="0.5" stroke-miterlimit="10" stroke-linecap="round"/>
<path d="M108.316 100.096L110.034 100.186L110.938 98.8324C111.119 98.5617 110.848 98.2909 110.577 98.4714L108.226 99.735C108.045 99.735 108.136 100.096 108.316 100.096Z" fill="#B14545"/>
<path d="M101.535 102.533C101.535 102.533 102.168 101.089 103.796 101.179" stroke="#8F1922" stroke-miterlimit="10" stroke-linecap="round"/>
<path d="M114.736 95.6734C114.736 95.6734 115.369 94.2293 116.996 94.3196" stroke="#8F1922" stroke-miterlimit="10" stroke-linecap="round"/>
<path d="M114.284 107.768C115.278 107.407 116.002 106.685 116.183 105.963L116.363 105.873C116.635 106.775 115.821 107.858 114.465 108.31C113.108 108.761 111.752 108.4 111.481 107.407L111.662 107.317C112.204 107.948 113.199 108.129 114.284 107.768Z" fill="#F2834C"/>
<path d="M107.864 96.0345C106.96 96.576 106.418 97.4786 106.418 98.2007L106.237 98.2909C105.694 97.4786 106.327 96.215 107.503 95.4929C108.678 94.7709 110.125 94.7709 110.577 95.5832L110.396 95.6734C109.853 95.4027 108.769 95.4929 107.864 96.0345Z" fill="#F2834C"/>
<path d="M123.687 119.411L123.596 119.321C123.235 118.87 122.602 118.689 122.059 118.779C122.059 118.689 122.059 118.689 122.059 118.689C122.059 118.599 122.059 118.599 122.15 118.599L122.873 118.057C123.687 117.425 123.868 116.252 123.235 115.44L123.144 115.259C122.873 114.898 122.512 114.718 122.059 114.537C122.873 113.905 123.054 112.822 122.512 111.92L122.421 111.739C121.788 110.927 120.703 110.746 119.799 111.288L119.528 111.468C119.437 111.468 119.437 111.468 119.347 111.468C119.89 110.837 119.89 109.934 119.437 109.212L119.347 109.032C118.714 108.219 117.629 108.039 116.725 108.58L114.374 110.295C112.204 111.83 109.763 112.913 107.322 113.815C108.226 111.198 108.949 108.039 107.593 107.587C104.157 106.324 99.8175 117.425 99.275 118.779C99.1846 118.87 99.1846 118.96 99.0942 118.96C95.7489 120.494 88.9678 126.542 85.7129 127.986C80.4688 130.332 75.2248 132.679 69.9808 135.026C63.6517 137.824 57.7748 140.441 54.4295 146.85C51.6266 152.085 51.265 158.944 56.8707 162.464C61.0297 165.172 66.4546 165.172 70.6137 162.374L108.588 132.95C114.193 128.888 121.155 123.653 121.246 123.563L123.506 121.668C124.229 121.126 124.32 120.043 123.687 119.411Z" fill="#FFCFC0"/>
<path d="M119.437 111.378L112.566 116.252" stroke="#FF8E77" stroke-width="0.75" stroke-miterlimit="10" stroke-linecap="round"/>
<path d="M121.246 114.808L114.465 119.772" stroke="#FF8E77" stroke-width="0.75" stroke-miterlimit="10" stroke-linecap="round"/>
<path d="M121.969 118.689L115.188 123.834" stroke="#FF8E77" stroke-width="0.75" stroke-miterlimit="10" stroke-linecap="round"/>
<path opacity="0.32" d="M101.626 131.957L101.716 131.777C101.807 131.325 102.168 130.964 102.44 130.784C101.445 130.513 100.902 129.52 101.174 128.527L101.264 128.347C101.535 127.354 102.53 126.812 103.524 127.083L103.796 127.173C103.886 127.173 103.886 127.173 103.977 127.173C103.253 126.722 102.892 125.91 103.163 125.097L103.253 124.917C103.524 123.924 104.609 123.383 105.514 123.653L108.316 124.466C110.848 125.188 113.47 125.368 116.092 125.368C114.374 123.202 112.656 120.494 113.741 119.592C115.007 118.509 117.267 119.772 119.437 121.487C116.725 118.96 113.38 116.433 111.752 117.787C110.667 118.689 112.385 121.397 114.103 123.563C111.481 123.563 108.859 123.383 106.327 122.66L103.524 121.848C102.53 121.577 101.535 122.119 101.264 123.112L101.174 123.292C100.902 124.105 101.264 124.917 101.987 125.368C101.897 125.368 101.897 125.368 101.807 125.368L101.535 125.278C100.541 125.007 99.5463 125.549 99.275 126.542L99.1846 126.722C98.9133 127.715 99.4558 128.708 100.45 128.979C100.089 129.249 99.8175 129.52 99.7271 129.971L99.6367 130.152C99.3654 131.145 99.9079 132.138 100.902 132.499L101.626 132.679C101.535 132.499 101.535 132.228 101.626 131.957Z" fill="#FF8E77"/>
<path opacity="0.32" d="M102.53 135.928L102.62 135.748C102.801 135.206 103.344 134.845 103.886 134.665C103.886 134.574 103.886 134.575 103.886 134.575L103.796 134.484L102.892 134.213C102.259 134.033 101.897 133.582 101.716 133.04C101.264 133.221 100.902 133.491 100.722 134.033L100.631 134.213C100.27 135.026 100.722 136.019 101.626 136.289L102.53 136.65C102.44 136.47 102.44 136.199 102.53 135.928Z" fill="#FF8E77"/>
<path opacity="0.32" d="M125.495 127.354C129.202 127.715 137.52 131.054 141.137 131.325C146.833 131.776 152.529 132.228 158.316 132.589C164.464 133.04 170.16 133.491 175.133 137.011C175.133 136.921 175.042 136.831 174.952 136.65C169.527 131.776 163.198 131.325 156.326 130.784C150.63 130.332 144.934 129.881 139.148 129.52C135.622 129.249 127.756 126.09 123.868 125.549C124.591 126.271 125.043 126.903 125.314 127.173C125.314 127.264 125.405 127.264 125.495 127.354Z" fill="#FF8E77"/>
<path d="M176.941 138.456C176.308 137.914 175.766 137.463 175.133 137.011C170.16 133.491 164.464 133.04 158.316 132.589C152.62 132.138 146.923 131.686 141.137 131.325C137.52 131.054 129.202 127.715 125.495 127.354C125.405 127.354 125.314 127.264 125.224 127.264C125.043 126.993 124.501 126.451 123.777 125.639C122.602 124.375 120.974 122.751 119.347 121.397C117.177 119.682 114.917 118.418 113.651 119.501C112.566 120.404 114.284 123.112 116.002 125.278C113.38 125.278 110.758 125.097 108.226 124.375L105.423 123.563C104.429 123.292 103.434 123.834 103.163 124.827L103.072 125.007C102.801 125.819 103.163 126.632 103.886 127.083C103.796 127.083 103.796 127.083 103.705 127.083L103.434 126.993C102.44 126.722 101.445 127.264 101.174 128.256L101.083 128.437C100.812 129.43 101.355 130.423 102.349 130.693C101.987 130.964 101.716 131.235 101.626 131.686L101.535 131.867C101.445 132.138 101.445 132.408 101.445 132.679C101.445 132.769 101.445 132.86 101.535 133.04C101.716 133.582 102.168 134.033 102.711 134.213L103.615 134.484L103.705 134.575C103.705 134.575 103.705 134.574 103.705 134.665C103.163 134.755 102.62 135.116 102.44 135.748L102.349 135.928C102.259 136.199 102.259 136.38 102.259 136.65C102.349 137.282 102.711 137.824 103.344 138.095L106.147 139.087C106.237 139.178 114.645 141.795 121.246 143.691L166.905 158.583C171.787 159.756 176.851 157.951 179.834 153.98C183.993 148.835 181.371 142.517 176.941 138.456Z" fill="#FFCFC0"/>
<path d="M103.886 126.993L112.023 129.249" stroke="#FF8E77" stroke-width="0.75" stroke-miterlimit="10" stroke-linecap="round"/>
<path d="M103.253 130.874L111.391 133.13" stroke="#FF8E77" stroke-width="0.75" stroke-miterlimit="10" stroke-linecap="round"/>
<path d="M103.977 134.755L112.023 137.282" stroke="#FF8E77" stroke-width="0.75" stroke-miterlimit="10" stroke-linecap="round"/>
</g>
<defs>
<clipPath id="clip0">
<rect width="216" height="252" fill="white"/>
</clipPath>
</defs>
</svg>
