<svg width="225" height="228" viewBox="0 0 225 228" fill="none" xmlns="http://www.w3.org/2000/svg">
<g clip-path="url(#clip0)">
<path opacity="0.22" d="M112.542 228.083C174.697 228.083 225.083 222.377 225.083 215.338C225.083 208.299 174.697 202.593 112.542 202.593C50.3866 202.593 0 208.299 0 215.338C0 222.377 50.3866 228.083 112.542 228.083Z" fill="#FFB1A8"/>
<path d="M95.5479 32.738L94.7149 31.072C93.4654 28.5729 93.0489 25.6573 93.7153 22.825C93.7986 22.5751 93.7986 22.3252 93.8819 22.0753C95.2147 14.4114 90.2999 7.16404 82.9693 5.58129L80.6368 5.08147C75.472 1.74936 69.5576 -1.46282e-06 63.5598 -1.46282e-06C63.3099 -1.46282e-06 63.06 -1.46282e-06 62.8101 -1.46282e-06H56.729C48.8152 -0.0833043 41.9011 6.41432 41.5679 14.9945C41.5679 15.2444 41.5679 15.5776 41.5679 15.8275C41.5679 18.9931 40.485 21.992 38.569 24.4077L37.3195 25.9905C34.4872 29.4892 33.4876 34.3208 34.6538 38.8191C35.3202 41.3182 35.0703 44.0672 33.9041 46.3997C31.6549 50.5648 33.321 55.8962 37.3195 57.8955L48.6486 63.5601C54.1466 66.2258 60.2277 61.4775 59.5613 54.9799L59.3947 53.1472C59.1448 50.6481 60.0611 48.2324 61.8104 46.6496C64.3095 43.9006 65.3924 40.0687 64.726 36.32C64.1429 32.9046 69.6409 33.4044 68.3913 36.32C67.0585 39.5689 67.3084 43.1509 69.0577 46.1498C70.3906 47.8991 70.7238 50.2316 69.9741 52.3975L69.391 53.9803C67.475 59.5616 72.1399 65.0595 77.6379 63.81L89.1336 61.1443C93.2155 60.1447 95.7145 55.8129 94.6316 51.6478C94.0485 49.3153 94.2984 46.8995 95.3813 44.7336C97.3806 40.985 97.4639 36.4867 95.5479 32.738Z" fill="#4E180B"/>
<path d="M99.3798 91.1334L121.038 101.13L116.374 83.886L117.54 79.471C117.54 72.8067 102.046 75.0559 100.13 70.8075C96.0477 62.2273 88.0507 58.312 76.8049 57.7289C76.3051 57.6456 47.9822 57.479 46.4828 57.479C44.8167 57.479 43.3173 57.5623 41.9844 57.7289C26.2403 59.0618 21.8252 82.8031 21.8252 82.8031C21.8252 82.8031 12.8286 107.044 30.0722 121.955L24.8241 162.274C24.6575 164.44 29.5724 167.106 31.6549 167.106H90.6331C91.3828 167.106 91.8826 166.522 91.8826 165.773L88.8837 111.543L88.967 111.459L88.8837 111.543L88.8004 110.21L100.879 96.798C102.545 94.882 101.712 91.9664 99.3798 91.1334Z" fill="#B14545"/>
<path opacity="0.57" d="M26.4902 149.029L56.5624 158.525L54.3965 160.858L25.3239 157.276L26.4902 149.029Z" fill="#843434"/>
<path opacity="0.57" d="M89.4669 119.706L59.0614 155.943L89.6335 123.622L89.4669 119.706Z" fill="#843434"/>
<path opacity="0.57" d="M82.3028 86.9682C83.3025 85.8853 84.8852 85.552 86.3013 86.0519L88.8837 87.0515L87.8008 86.3018C85.7182 84.8856 82.8859 84.8856 80.8034 86.3018L59.0614 101.463L38.7356 82.8864L58.0618 106.045L82.3028 86.9682Z" fill="#843434"/>
<path opacity="0.57" d="M58.7282 134.534C55.4794 137.033 50.8978 137.117 47.5657 134.701L30.0722 122.039L44.8167 136.783L45.3165 137.283C49.9815 141.948 57.3954 142.115 62.3102 137.866C62.5601 137.7 62.7267 137.533 62.8934 137.283L88.8004 110.21L58.7282 134.534Z" fill="#843434"/>
<path d="M85.3851 13.4117C82.7194 18.5765 76.4717 26.3237 63.7264 24.8242C61.3939 24.5743 59.5613 23.9912 58.0618 23.1582L57.7286 27.0734L55.9793 26.9068C52.9804 26.6569 50.2314 28.9894 50.0648 31.9883C49.8149 34.9872 52.1474 37.7362 55.1463 37.9028L56.8956 38.0694L56.5624 42.1512C56.4791 42.8177 56.5624 43.4841 56.5624 44.0672L55.1463 62.1439C54.813 66.3091 57.9785 69.9744 62.0604 70.3076L66.3088 70.6408C70.4739 70.974 74.1392 67.8085 74.4724 63.7267L75.0555 56.7292C79.1374 56.6459 82.886 54.6467 85.2185 51.4812C87.301 49.3986 88.6339 46.5663 88.8838 43.4008L90.2999 25.3241C88.8838 19.1596 85.3851 13.4117 85.3851 13.4117Z" fill="#FFCFC0"/>
<path opacity="0.32" d="M74.8889 55.3131L69.8075 54.8966C62.6435 54.3135 57.3121 48.0657 57.8952 40.9017L58.1451 38.1527L56.8123 38.0694L56.4791 42.1512C56.1459 46.5663 58.0618 50.6481 61.144 53.2305C61.0607 53.647 61.0607 54.0636 61.0607 54.4801C61.0607 58.312 64.1429 61.3942 67.9748 61.3942C71.057 61.3942 73.6394 59.3949 74.4724 56.6459C78.8042 56.7292 82.7194 54.6467 85.1351 51.3979C82.6361 54.0636 78.8875 55.6463 74.8889 55.3131Z" fill="#833742"/>
<path d="M54.0633 29.7391L55.8127 32.5714L53.5635 33.5711" stroke="#833742" stroke-miterlimit="10" stroke-linecap="round" stroke-linejoin="round"/>
<path d="M80.8867 47.1494C80.8867 47.1494 79.3873 46.0665 77.8878 47.1494" stroke="#833742" stroke-miterlimit="10" stroke-linecap="round"/>
<path d="M70.7238 34.7373C70.7238 34.7373 72.8064 37.2364 75.3055 38.8191C77.8045 40.4019 73.7227 43.9006 69.8075 41.7347C65.809 39.4855 68.7246 33.3211 70.7238 34.7373Z" fill="white"/>
<path d="M72.3899 26.5736C72.7231 26.7402 73.1396 26.6569 73.5561 26.6569C73.9726 26.6569 74.3891 26.5736 74.7223 26.5736C75.0555 26.5736 75.472 26.5736 75.8886 26.5736C76.3051 26.5736 76.7216 26.6569 77.0548 26.4903C77.388 26.3237 77.4713 25.9905 77.1381 25.4907C76.8049 25.0742 75.8886 24.5743 74.7223 24.5743C73.5561 24.5743 72.6398 25.0742 72.3066 25.574C71.9734 26.0738 72.14 26.4903 72.3899 26.5736Z" fill="#4E180B"/>
<path d="M88.3006 29.3226C87.9674 29.3226 87.5509 29.0727 87.2177 28.9061C86.8845 28.7395 86.468 28.4896 86.2181 28.323C85.8849 28.1564 85.5517 27.9898 85.1351 27.8232C84.8019 27.6565 84.3854 27.4899 84.1355 27.24C83.8856 26.9901 83.9689 26.5736 84.4687 26.3237C84.9685 26.0738 85.9682 26.0738 87.0511 26.5736C88.134 27.0734 88.7171 27.9065 88.8005 28.4896C88.9671 29.0727 88.6338 29.3226 88.3006 29.3226Z" fill="#4E180B"/>
<path d="M84.8019 33.4045C84.8019 33.4045 86.1348 32.8213 87.5509 33.9043" stroke="#4E180C" stroke-miterlimit="10" stroke-linecap="round"/>
<path d="M72.8064 31.4885C72.8064 31.4885 74.1392 30.9054 75.5554 31.9883" stroke="#4E180C" stroke-miterlimit="10" stroke-linecap="round"/>
<path d="M81.8031 29.6558L82.053 37.403C82.053 37.5696 81.9697 37.7362 81.8864 37.8195C81.3865 38.236 80.137 38.9857 77.5546 37.7362" stroke="#833742" stroke-miterlimit="10" stroke-linecap="round"/>
<path d="M51.231 39.4856C50.8145 41.5681 51.1477 43.4841 52.0641 43.6507C52.9804 43.8173 54.0633 42.3178 54.4798 40.152C54.8963 38.0694 54.5631 36.1534 53.6468 35.9868C52.8138 35.8202 51.7308 37.403 51.231 39.4856Z" stroke="#FFA06C" stroke-miterlimit="10" stroke-linecap="round"/>
<path d="M162.19 201.01L162.856 196.761L175.019 189.681L177.767 200.26L162.19 201.01Z" fill="#C76E5E"/>
<path d="M184.848 194.429L140.615 107.711C139.032 104.795 136.449 102.546 133.367 101.463C129.535 99.7968 124.954 100.047 121.205 102.213C118.956 103.129 116.873 104.545 115.041 106.378L43.4006 177.935C38.0692 183.266 37.9026 191.93 43.1507 197.261C56.6457 210.84 79.1374 209.09 90.7164 193.596L126.037 149.112L157.692 197.428L184.848 194.429Z" fill="#252333"/>
<path d="M164.356 221.586L182.682 221.502L182.516 200.343L162.273 200.51L162.357 219.753C162.44 220.753 163.356 221.586 164.356 221.586Z" fill="#F2834C"/>
<path d="M204.174 221.336L182.349 221.502L182.266 208.757L196.177 208.674C200.592 208.674 204.174 212.172 204.174 216.588V221.336Z" fill="#F2834C"/>
<path d="M204.085 219.129L162.434 219.387L162.453 222.469L204.104 222.211L204.085 219.129Z" fill="#F7EEE6"/>
<path d="M127.286 111.709C125.62 108.794 122.871 106.544 119.706 105.545C115.79 104.045 111.375 104.379 107.71 106.628C105.461 107.627 103.378 109.043 101.629 110.959L54.3965 160.775L25.324 157.276C19.9926 168.438 21.8253 183.683 26.8234 194.679C32.2381 206.591 43.9004 213.589 56.9789 212.172C66.8919 211.173 73.3062 205.841 79.7205 198.844L117.207 157.692L145.863 198.344L174.269 193.179L127.286 111.709Z" fill="#373449"/>
<path d="M54.3965 160.858L45.7331 171.937L43.4839 168.855L54.3965 160.858Z" fill="#252333"/>
<path d="M149.528 221.586L167.854 221.502L167.688 200.343L147.445 200.51L147.529 219.753C147.612 220.753 148.528 221.586 149.528 221.586Z" fill="#FFA06C"/>
<path d="M189.347 221.336L167.521 221.502L167.438 208.757L181.349 208.674C185.765 208.674 189.347 212.172 189.347 216.587V221.336Z" fill="#FFA06C"/>
<path d="M189.257 219.129L147.606 219.387L147.625 222.469L189.276 222.211L189.257 219.129Z" fill="#F7EEE6"/>
<path d="M168.854 209.174C168.438 209.257 168.104 208.84 168.271 208.507C169.021 207.008 170.687 204.175 172.186 205.841C173.686 207.507 170.52 208.674 168.854 209.174Z" stroke="#EAEAEA" stroke-width="0.75" stroke-miterlimit="10" stroke-linecap="round" stroke-linejoin="round"/>
<path d="M162.44 208.341C162.606 205.675 166.188 207.341 167.938 208.341C168.188 208.507 168.271 208.84 168.188 209.09C168.104 209.174 168.021 209.34 167.855 209.34C166.022 210.09 162.273 211.006 162.44 208.341Z" stroke="#EAEAEA" stroke-width="0.75" stroke-miterlimit="10" stroke-linecap="round" stroke-linejoin="round"/>
<path d="M168.438 209.34C168.438 209.34 168.854 212.756 166.272 214.088" stroke="#EAEAEA" stroke-width="0.75" stroke-miterlimit="10" stroke-linecap="round" stroke-linejoin="round"/>
<path d="M158.108 210.673C158.108 212.756 156.442 214.422 154.443 214.422C152.36 214.422 150.694 212.756 150.694 210.756C150.694 208.674 152.36 207.008 154.359 207.008C156.442 207.008 158.108 208.674 158.108 210.673Z" stroke="#EAEAEA" stroke-width="0.75" stroke-miterlimit="10" stroke-linecap="round" stroke-linejoin="round"/>
<path d="M148.695 197.844V200.427H167.355V194.429L148.695 197.844Z" fill="#C76E5E"/>
<path d="M125.703 103.129L122.538 110.126" stroke="#FFA06C" stroke-width="2" stroke-miterlimit="10" stroke-linecap="round"/>
<path d="M126.203 110.21L122.288 110.376L118.456 112.959" stroke="#FFA06C" stroke-width="2" stroke-miterlimit="10" stroke-linecap="round"/>
<path d="M117.79 108.544L122.288 110.376" stroke="#FFA06C" stroke-width="2" stroke-miterlimit="10" stroke-linecap="round"/>
<path d="M116.374 110.543L121.788 110.376" stroke="#FFA06C" stroke-width="2" stroke-miterlimit="10" stroke-linecap="round"/>
<path d="M118.789 98.5473L115.624 105.545" stroke="#FFA06C" stroke-width="2" stroke-miterlimit="10" stroke-linecap="round"/>
<path d="M119.289 105.711L115.374 105.795L111.542 108.377" stroke="#FFA06C" stroke-width="2" stroke-miterlimit="10" stroke-linecap="round"/>
<path d="M110.876 103.962L115.374 105.795" stroke="#FFA06C" stroke-width="2" stroke-miterlimit="10" stroke-linecap="round"/>
<path d="M109.459 106.045L114.874 105.795" stroke="#FFA06C" stroke-width="2" stroke-miterlimit="10" stroke-linecap="round"/>
<path d="M152.777 80.3873L146.946 81.5535C146.862 81.4702 146.946 81.4702 146.862 81.3869C149.778 79.0544 150.611 74.8893 148.612 71.6405L143.28 75.2225C144.03 72.4735 143.28 69.3913 140.948 67.4753L133.784 76.5553H132.701C124.87 76.7219 117.29 76.8885 114.458 69.6412C113.791 67.9751 113.708 65.8093 113.375 64.0599C113.041 62.3105 112.792 60.4779 112.375 58.6452C111.709 55.7296 109.376 53.647 106.294 53.9803C105.877 54.0636 105.378 54.1469 104.878 54.2302C104.878 54.1469 104.878 54.0636 104.878 53.897C104.878 53.2305 104.545 52.7307 104.211 52.7307C103.878 52.7307 103.545 53.2305 103.545 53.897C103.545 53.9803 103.545 53.9803 103.545 54.0636C103.212 53.7303 102.879 53.5637 102.712 53.7303C102.545 53.897 102.629 54.3135 102.879 54.6467C102.962 54.73 103.045 54.8133 103.128 54.8966C102.462 55.3131 102.046 55.8962 101.962 56.6459L101.462 75.2225C101.296 77.2218 101.212 79.1377 101.296 81.137C101.296 82.5531 101.379 83.886 101.712 85.3021C103.712 94.3822 111.709 100.963 120.955 101.213C121.288 103.545 123.371 105.212 125.703 105.128C128.286 105.045 130.285 102.879 130.202 100.297C130.202 100.13 130.202 100.047 130.202 99.8801C136.283 98.1308 141.281 94.7154 144.197 89.6339L147.112 88.8009C150.944 87.8012 153.277 84.1359 152.777 80.3873Z" fill="#C76E5E"/>
<path opacity="0.18" d="M140.281 75.1392L143.53 72.9733C143.53 70.8907 142.614 68.8082 140.948 67.392L139.448 69.2247C140.615 70.9741 140.864 73.1399 140.281 75.1392Z" fill="#FF8E77"/>
<path opacity="0.18" d="M143.863 81.3036C143.947 81.3869 143.863 81.3869 143.947 81.4702L147.362 80.8038C149.861 78.388 150.444 74.5561 148.612 71.4739L146.279 72.9733C147.279 76.0555 146.362 79.3043 143.863 81.3036Z" fill="#FF8E77"/>
<path opacity="0.18" d="M152.777 80.3873L149.861 80.9704C150.111 84.5524 147.779 87.8012 144.28 88.8009L141.364 89.6339C138.449 94.7154 133.451 98.0475 127.369 99.8801C127.369 100.047 127.369 100.13 127.369 100.297C127.453 102.379 126.12 104.212 124.204 104.878C124.704 105.045 125.287 105.128 125.87 105.128C128.452 105.045 130.452 102.879 130.368 100.297C130.368 100.13 130.368 100.047 130.368 99.8801C136.449 98.1308 141.448 94.7154 144.363 89.6339L147.279 88.8009C150.944 87.8012 153.277 84.1359 152.777 80.3873Z" fill="#FF8E77"/>
<path opacity="0.06" d="M123.871 101.13C114.541 100.88 106.627 94.2988 104.628 85.2188C104.295 83.886 104.211 82.4698 104.211 81.0537C104.211 79.0544 104.211 77.0551 104.378 75.1392L104.878 56.5626C104.961 55.8129 105.378 55.2298 106.044 54.8133C105.961 54.73 105.877 54.6467 105.794 54.5634C105.628 54.3968 105.544 54.1469 105.544 53.9802C105.378 53.9802 105.211 54.0635 104.961 54.1469C104.961 54.0635 104.961 53.9802 104.961 53.8136C104.961 53.1472 104.628 52.6474 104.295 52.6474C103.961 52.6474 103.628 53.1472 103.628 53.8136C103.628 53.8969 103.628 53.8969 103.628 53.9802C103.295 53.647 102.962 53.4804 102.795 53.647C102.629 53.8136 102.712 54.2302 102.962 54.5634C103.045 54.6467 103.128 54.73 103.212 54.8133C102.545 55.2298 102.129 55.8129 102.046 56.5626L101.546 75.1392C101.379 77.1384 101.296 79.0544 101.379 81.0537C101.379 82.4698 101.462 83.8027 101.796 85.2188C103.795 94.2988 111.792 100.88 121.038 101.13C121.372 103.462 123.454 105.128 125.787 105.045C126.203 105.045 126.62 104.962 127.036 104.795C125.454 104.295 124.204 102.879 123.871 101.13Z" fill="#FF8E77"/>
<path opacity="0.32" d="M108.71 83.1363C108.793 84.719 109.293 86.0519 110.126 87.2181C112.625 92.2996 118.04 95.5484 124.037 95.1319C131.951 94.5488 137.782 87.6346 137.199 79.8042L124.537 80.8038C123.288 80.8871 122.205 80.304 121.538 79.221C120.289 77.1385 117.956 75.7223 115.374 75.8056C111.875 75.8889 109.126 78.6379 108.71 82.0533C108.71 82.1366 108.71 82.3032 108.71 82.3865C108.71 82.6364 108.71 82.8864 108.71 83.1363Z" fill="#FF8E77"/>
<path d="M112.625 81.97C112.625 81.97 114.208 83.1362 115.291 81.4702" stroke="#FFCFC0" stroke-miterlimit="10" stroke-linecap="round"/>
<path d="M113.291 86.0518C113.291 86.0518 114.874 87.2181 115.957 85.552" stroke="#FFCFC0" stroke-miterlimit="10" stroke-linecap="round"/>
<path d="M117.54 83.3862C117.54 83.3862 119.123 84.5524 120.205 82.8864" stroke="#FFCFC0" stroke-miterlimit="10" stroke-linecap="round"/>
<path opacity="0.32" d="M103.295 67.4753C103.295 67.4753 103.961 68.0584 104.378 67.2254" stroke="#FF8E77" stroke-width="0.5" stroke-miterlimit="10" stroke-linecap="round"/>
<path opacity="0.32" d="M105.628 64.3098C105.628 64.3098 106.294 64.8929 106.71 64.0599" stroke="#FF8E77" stroke-width="0.5" stroke-miterlimit="10" stroke-linecap="round"/>
<path opacity="0.32" d="M107.627 67.4753C107.627 67.4753 108.293 68.0584 108.71 67.2254" stroke="#FF8E77" stroke-width="0.5" stroke-miterlimit="10" stroke-linecap="round"/>
<path opacity="0.32" d="M105.544 70.2243C105.544 70.2243 106.211 70.8074 106.627 69.9744" stroke="#FF8E77" stroke-width="0.5" stroke-miterlimit="10" stroke-linecap="round"/>
<path d="M129.285 83.8859L136.866 83.636" stroke="#FFCFC0" stroke-miterlimit="10" stroke-linecap="round"/>
<path d="M127.869 87.5513L134.95 88.4676" stroke="#FFCFC0" stroke-miterlimit="10" stroke-linecap="round"/>
<path d="M124.371 90.5502L131.618 92.4661" stroke="#FFCFC0" stroke-miterlimit="10" stroke-linecap="round"/>
<path d="M105.378 58.9784C105.378 58.9784 106.211 57.8122 107.21 58.9784" stroke="#612B2F" stroke-width="0.5" stroke-miterlimit="10" stroke-linecap="round"/>
<path d="M104.128 59.5615C104.128 58.8951 103.628 58.312 102.962 58.2287C101.379 57.9788 100.629 58.4786 99.5464 59.7281L99.0466 60.3112L104.211 60.4779V59.5615H104.128Z" fill="#FFA06C"/>
<path d="M100.13 60.4778L102.462 61.5608C103.128 61.894 103.961 61.3942 103.961 60.6445L100.13 60.4778Z" fill="#F7844B"/>
<path d="M130.868 65.3094L123.204 65.8093C121.872 65.8926 120.622 66.6423 119.956 67.8918L115.957 74.8893C115.124 76.3054 115.707 78.1381 117.123 78.8878L118.623 79.6375L119.789 74.3895L118.123 81.8034C117.956 82.6364 118.623 83.3862 119.456 83.3029C120.205 83.2196 120.872 82.803 121.205 82.0533L124.704 74.8893L121.872 83.5528C121.705 84.1359 122.288 84.719 122.871 84.4691C125.12 83.3862 126.953 81.6368 128.036 79.3876L128.952 77.4717C128.952 77.4717 134.117 81.137 140.531 78.3047C140.365 78.3047 145.696 67.3087 130.868 65.3094Z" fill="#FFCFC0"/>
<path d="M118.123 79.3877C118.04 79.3044 117.956 79.1377 118.04 79.0544L119.456 73.7231C119.539 73.5564 119.706 73.4731 119.872 73.4731C120.039 73.5564 120.122 73.7231 120.122 73.8897L118.706 79.221C118.623 79.3876 118.456 79.471 118.289 79.471C118.206 79.471 118.123 79.3877 118.123 79.3877Z" fill="#833742"/>
<path d="M123.371 75.3891C123.288 75.3058 123.204 75.1391 123.288 74.9725C123.371 74.8059 123.538 74.7226 123.704 74.8059C123.704 74.8059 124.287 75.0558 125.037 75.3891C125.204 75.4724 125.287 75.639 125.204 75.8056C125.12 75.9722 124.954 76.0555 124.787 75.9722C124.121 75.639 123.454 75.3891 123.454 75.3891H123.371Z" fill="#833742"/>
<path d="M119.039 73.5564C118.956 73.4731 118.873 73.3065 118.956 73.1399C119.039 72.9733 119.206 72.89 119.372 72.9733C119.372 72.9733 119.956 73.2232 120.705 73.5564C120.872 73.6397 120.955 73.8063 120.872 73.9729C120.789 74.1395 120.622 74.2228 120.455 74.1395C119.789 73.8063 119.206 73.5564 119.123 73.5564C119.123 73.6397 119.039 73.5564 119.039 73.5564Z" fill="#833742"/>
<path d="M128.286 77.8881C128.202 77.8048 128.119 77.6382 128.202 77.4716C128.452 76.9718 128.536 76.3054 128.536 76.3054C128.536 76.1388 128.702 75.9722 128.952 76.0555C129.119 76.0555 129.285 76.2221 129.202 76.472C129.202 76.472 129.036 77.2217 128.786 77.8048C128.702 77.9714 128.536 78.0547 128.286 77.8881C128.369 77.9714 128.286 77.9714 128.286 77.8881Z" fill="#833742"/>
<path d="M106.627 77.2217C107.46 76.2221 107.377 74.8059 106.544 73.8896L105.628 72.89C105.128 72.3902 104.378 72.2236 103.795 72.6401L103.545 72.8067L104.045 72.057C104.545 71.3072 104.295 70.3076 103.545 69.8911L101.962 68.9748C101.462 68.6415 100.713 68.7248 100.296 69.1414L99.2965 70.0577C99.2965 70.0577 99.2132 70.0577 99.2132 69.9744L102.629 65.2261C103.295 64.3931 103.045 63.1436 102.212 62.4771C101.379 61.8107 100.13 62.0606 99.4632 62.8936L94.8815 69.2247C93.7153 69.5579 93.0489 70.4742 92.6323 71.2239C91.7993 71.3072 90.883 71.7237 90.2166 72.6401C88.8837 74.4727 87.301 82.9696 86.7179 86.2184L88.7171 86.9682L99.1299 90.9667C99.7964 89.9671 100.963 88.6342 103.045 86.9682C104.795 86.4683 106.377 85.1355 106.877 82.3032C107.377 80.4705 107.127 78.8045 106.627 77.2217Z" fill="#FFCFC0"/>
<path d="M103.128 73.8063L104.128 72.3069" stroke="#833742" stroke-width="0.75" stroke-miterlimit="10" stroke-linecap="round"/>
<path d="M99.5464 69.7245L98.3802 71.5572" stroke="#833742" stroke-width="0.75" stroke-miterlimit="10" stroke-linecap="round"/>
<path d="M102.462 73.8063L103.295 74.4728" stroke="#833742" stroke-width="0.75" stroke-miterlimit="10" stroke-linecap="round"/>
<path d="M97.6305 71.4738L98.7134 72.3068" stroke="#833742" stroke-width="0.75" stroke-miterlimit="10" stroke-linecap="round"/>
</g>
<defs>
<clipPath id="clip0">
<rect width="225" height="228" fill="white"/>
</clipPath>
</defs>
</svg>
