<svg width="226" height="232" viewBox="0 0 226 232" fill="none" xmlns="http://www.w3.org/2000/svg">
<g clip-path="url(#clip0)">
<path opacity="0.22" d="M112.961 232C175.348 232 225.922 226.667 225.922 220.089C225.922 213.51 175.348 208.177 112.961 208.177C50.5744 208.177 0 213.51 0 220.089C0 226.667 50.5744 232 112.961 232Z" fill="#FFB1A8"/>
<path d="M218.775 127.366L213.958 95.0577C209.452 79.3315 209.374 72.0913 193.293 70.7678C191.894 70.6121 190.34 70.4564 188.631 70.4564C187.077 70.4564 158.177 70.6121 157.633 70.6899C144.27 71.4684 135.336 76.6845 132.151 88.9852L128.965 81.2C116.224 87.506 108.766 100.974 110.087 115.066L112.029 134.84L144.892 131.726L144.969 131.415L142.328 181.24C142.328 181.941 142.872 182.564 143.571 182.564H203.781C205.956 182.564 210.928 179.839 210.773 177.581L207.51 144.26C207.432 144.416 221.106 140.212 218.775 127.366Z" fill="#2B4047"/>
<path d="M154.137 71.0013L156.312 88.2845C156.778 91.7879 160.041 94.2792 163.537 93.7342C170.374 92.7221 176.434 88.8295 180.241 82.9906L188.554 70.4564C188.631 70.5342 154.681 69.1329 154.137 71.0013Z" fill="#F7EEE6"/>
<path d="M188.942 102.064L189.33 127.289L147.844 143.404L184.591 125.654L188.942 102.064Z" fill="#213338"/>
<path d="M72.7955 151.656L74.427 165.903L74.5047 166.76L74.66 167.616C74.7377 168.161 74.8154 168.706 74.9708 169.251L75.3593 170.808L75.9031 172.365C76.68 174.389 77.69 176.258 78.8553 177.815C80.0983 179.45 81.5744 180.773 83.0506 181.63C84.6044 182.486 86.1582 182.953 87.6343 182.875H87.8673L88.1004 182.797L88.6442 182.719L90.2757 182.564L93.8495 182.174L100.997 181.396V194.787L93.8495 194.008L90.2757 193.619L89.4211 193.541L88.4112 193.385L87.1681 193.229L86.5466 193.152L85.9251 192.996C82.6621 192.14 79.8653 190.427 77.7676 188.403C75.5923 186.301 74.0385 183.887 72.8732 181.396C71.7078 178.905 71.0863 176.258 70.6979 173.689L70.5425 171.742C70.5425 171.119 70.5425 170.419 70.5425 169.796C70.5425 169.173 70.6202 168.472 70.6202 167.85L70.6979 166.915L70.7755 166.059L72.407 151.812H72.7955V151.656Z" fill="#4E180C"/>
<path d="M165.013 108.682L155.302 95.914L157.478 114.131" fill="#3A1D18"/>
<path d="M133.238 87.9731L115.214 91.165C108.921 92.255 104.105 97.4711 103.405 103.777L101.774 119.503C101.23 124.642 106.746 128.145 111.174 125.576L116.302 122.54L133.238 87.9731Z" fill="#4E180C"/>
<path d="M159.575 118.491L156.701 99.4952C156.079 95.5248 153.438 92.1771 149.709 90.6201L144.814 88.6738L144.27 88.4402L143.649 88.2845L140.075 87.4281C136.19 86.4939 132.151 87.6617 129.354 90.5422L117.778 102.376C114.204 106.035 112.884 111.251 114.36 116.156L117.39 126.121L116.069 130.169C104.182 131.57 94.9371 141.769 94.9371 153.992V199.613C94.9371 208.8 102.473 216.352 111.64 216.352H133.86C143.027 216.352 150.563 208.8 150.563 199.613V154.537C150.563 148.387 148.31 142.781 144.503 138.421L145.513 135.229L155.924 127.289C158.721 125.264 160.119 121.839 159.575 118.491Z" fill="#E7693B"/>
<path d="M126.402 189.415H119.099C109.931 189.415 102.395 181.863 102.395 172.676V153.992C102.395 140.757 113.194 129.936 126.402 129.936C135.569 129.936 143.105 137.487 143.105 146.674V172.676C143.105 181.941 135.569 189.415 126.402 189.415Z" fill="#F2834C"/>
<path d="M118.011 126.354L144.969 135.074C145.28 135.152 145.513 135.541 145.436 135.852L144.503 140.29C144.426 140.679 144.037 140.913 143.649 140.835L116.224 132.038C115.836 131.96 115.68 131.57 115.758 131.181L117.156 126.821C117.312 126.432 117.7 126.199 118.011 126.354Z" fill="#3B3047"/>
<path d="M160.43 106.268L154.292 118.88C152.195 123.162 151.495 128.067 152.272 132.738L152.505 134.217C153.282 138.966 159.497 140.134 162.061 136.086L171.306 121.138C173.637 117.401 173.093 112.497 169.986 109.382L153.982 93.1113L160.43 106.268Z" fill="#4E180C"/>
<path d="M131.918 111.329C131.918 111.329 131.296 114.365 133.549 115.144C135.802 115.844 136.812 114.91 137.744 113.197" stroke="#4E180C" stroke-width="0.75" stroke-miterlimit="10" stroke-linecap="round"/>
<path d="M137.744 113.197C137.744 113.197 137.123 116.233 139.376 117.012C141.629 117.791 142.639 116.778 143.571 115.066" stroke="#4E180C" stroke-width="0.75" stroke-miterlimit="10" stroke-linecap="round"/>
<path d="M133.471 107.748L135.414 111.329C136.268 112.964 138.055 113.664 139.764 113.041L143.726 111.64C144.814 111.407 144.969 109.694 143.959 109.382L134.481 106.268C133.627 105.957 133.005 107.047 133.471 107.748Z" fill="#4E180C"/>
<path d="M146.679 110.706C146.679 110.706 148.543 110.005 149.786 111.562" stroke="#4E180C" stroke-miterlimit="10" stroke-linecap="round"/>
<path d="M132.461 103.855C132.228 104.556 131.451 104.945 130.83 104.711C130.131 104.478 129.742 103.699 129.975 103.076C130.208 102.376 130.985 101.987 131.607 102.22C132.306 102.376 132.695 103.154 132.461 103.855Z" fill="#4E180C"/>
<path d="M129.121 104.711C129.121 104.711 130.985 104.011 132.228 105.568" stroke="#4E180C" stroke-miterlimit="10" stroke-linecap="round"/>
<path opacity="0.42" d="M135.491 119.893C136.579 120.282 137.744 120.204 138.366 119.659L138.521 119.737C138.133 120.749 136.657 121.138 135.258 120.593C133.782 120.048 132.928 118.803 133.238 117.791L133.471 117.868C133.627 118.725 134.404 119.503 135.491 119.893Z" fill="#B14545"/>
<path d="M140.075 104.166C138.91 103.855 137.822 104.011 137.2 104.556L137.045 104.478C137.356 103.466 138.832 102.999 140.308 103.466C141.784 103.933 142.794 105.101 142.483 106.113L142.25 106.035C142.017 105.256 141.24 104.478 140.075 104.166Z" fill="#B14545"/>
<path d="M128.111 78.3973L136.19 76.2174C137.667 75.8281 139.143 76.2174 140.308 77.1516L146.912 82.9127C148.232 84.0805 148.31 86.1047 147.067 87.4282L145.746 88.7516L142.716 83.7691L147.067 90.8537C147.533 91.6322 147.145 92.6443 146.212 92.8778C145.436 93.0335 144.581 92.8 143.959 92.255L137.822 86.1047L143.804 93.9677C144.27 94.5127 143.804 95.3691 143.105 95.2912C140.386 94.9798 137.9 93.812 136.035 91.8657L134.404 90.153C134.404 90.153 130.364 95.7584 122.828 95.1355C122.828 95.1355 113.505 85.7154 128.111 78.3973Z" fill="#FFC5A6"/>
<path d="M146.212 88.3624C146.29 88.2845 146.29 88.1288 146.212 87.9731L142.872 82.9127C142.794 82.757 142.561 82.6792 142.406 82.8349C142.25 82.9127 142.173 83.1463 142.328 83.302L145.669 88.3624C145.746 88.5181 145.979 88.5959 146.135 88.4402C146.135 88.5181 146.135 88.4402 146.212 88.3624Z" fill="#FF8E77"/>
<path d="M139.298 86.1047C139.376 85.949 139.376 85.7933 139.22 85.7154C139.065 85.5597 138.832 85.5597 138.677 85.7154C138.677 85.7154 138.133 86.1825 137.511 86.7275C137.356 86.8832 137.356 87.1168 137.511 87.2725C137.667 87.4282 137.9 87.4282 138.055 87.2725C138.677 86.7275 139.22 86.2604 139.22 86.2604C139.298 86.1825 139.298 86.1825 139.298 86.1047Z" fill="#FF8E77"/>
<path d="M143.105 82.757C143.183 82.6013 143.183 82.4456 143.027 82.3678C142.872 82.2121 142.639 82.2121 142.483 82.3678C142.483 82.3678 141.939 82.8349 141.318 83.3798C141.163 83.5355 141.163 83.7691 141.318 83.9248C141.473 84.0805 141.706 84.0805 141.862 83.9248C142.483 83.3798 143.027 82.9127 143.027 82.9127C143.105 82.757 143.105 82.757 143.105 82.757Z" fill="#FF8E77"/>
<path d="M135.103 90.4644C135.18 90.3087 135.18 90.153 135.025 89.9973C134.637 89.608 134.248 88.9073 134.248 88.9073C134.171 88.7516 133.937 88.6738 133.782 88.7516C133.627 88.8295 133.549 89.063 133.627 89.2187C133.627 89.2187 134.015 89.9973 134.481 90.4644C134.714 90.6979 134.947 90.6979 135.103 90.4644C135.103 90.5422 135.103 90.5422 135.103 90.4644Z" fill="#FF8E77"/>
<path d="M134.947 99.1839C134.559 99.3396 134.093 99.2617 133.627 99.1839C133.161 99.106 132.694 99.0281 132.306 99.0281C131.918 98.9503 131.451 98.9503 130.985 98.9503C130.519 98.9503 130.053 98.9503 129.665 98.7167C129.354 98.4832 129.276 98.0161 129.742 97.3932C130.208 96.8483 131.296 96.2255 132.617 96.3812C133.937 96.5369 134.87 97.3154 135.181 97.9382C135.491 98.561 135.258 99.0281 134.947 99.1839Z" fill="#4E180C"/>
<path d="M150.563 105.801C150.175 105.646 149.864 105.256 149.553 104.945C149.242 104.556 148.932 104.244 148.699 103.933C148.388 103.621 148.077 103.31 147.766 102.999C147.456 102.687 147.067 102.376 146.989 101.987C146.912 101.597 147.145 101.13 147.922 101.052C148.621 100.897 149.786 101.208 150.718 102.22C151.651 103.232 151.806 104.4 151.651 105.101C151.418 105.723 150.952 105.957 150.563 105.801Z" fill="#4E180C"/>
<path d="M8.62357 218.532L8.70126 201.482L28.3568 201.638L28.2791 220.478L10.4104 220.4C9.40046 220.322 8.54588 219.466 8.62357 218.532Z" fill="#FFA06C"/>
<path d="M8.77895 181.552L8.62357 201.871L20.4324 201.949L20.5101 189.103C20.5101 184.977 17.2471 181.63 13.1296 181.63L8.77895 181.552Z" fill="#FFA06C"/>
<path d="M8.03477 181.51L7.79495 220.28L10.6695 220.298L10.9093 181.528L8.03477 181.51Z" fill="#F7EEE6"/>
<path d="M20.1217 200.548C20.044 200.937 20.4324 201.248 20.7432 201.093C22.1416 200.392 24.7054 198.835 23.1516 197.511C21.5978 196.11 20.5878 198.991 20.1217 200.548Z" stroke="#EAEAEA" stroke-width="0.75" stroke-miterlimit="10" stroke-linecap="round" stroke-linejoin="round"/>
<path d="M20.8209 206.542C23.307 206.387 21.7532 203.039 20.8209 201.404C20.6655 201.17 20.3548 201.093 20.1217 201.17C20.044 201.248 19.8886 201.326 19.8886 201.482C19.2671 203.272 18.4125 206.698 20.8209 206.542Z" stroke="#EAEAEA" stroke-width="0.75" stroke-miterlimit="10" stroke-linecap="round" stroke-linejoin="round"/>
<path d="M19.9663 201.015C19.9663 201.015 16.8587 200.626 15.538 202.961" stroke="#EAEAEA" stroke-width="0.75" stroke-miterlimit="10" stroke-linecap="round" stroke-linejoin="round"/>
<path d="M18.6456 210.591C16.7033 210.591 15.1495 212.148 15.1495 214.016C15.1495 215.962 16.7033 217.519 18.5679 217.519C20.5101 217.519 22.0639 215.962 22.0639 214.094C22.1416 212.148 20.5878 210.591 18.6456 210.591Z" stroke="#EAEAEA" stroke-width="0.75" stroke-miterlimit="10" stroke-linecap="round" stroke-linejoin="round"/>
<path d="M209.918 172.054L179.308 175.791L123.294 145.428C116.224 141.613 107.523 143.093 102.162 149.087L85.4589 191.205L28.1237 196.499C26.803 196.655 25.7154 197.823 25.793 199.146L26.5699 220.244C26.6476 221.412 27.5799 222.268 28.7453 222.191L104.648 217.519L175.89 220.478C175.968 220.478 176.123 220.556 176.201 220.556C188.553 223.903 202.227 218.765 208.908 206.932C208.986 206.932 219.163 191.595 209.918 172.054ZM112.417 189.259L115.447 179.839L129.121 189.493L113.505 189.337L112.417 189.259Z" fill="#3B3047"/>
<path d="M105.192 206.153L81.4967 203.662C81.0306 203.584 80.7198 203.117 80.9529 202.728L85.4589 191.283L84.2159 191.361L78.2337 204.83L82.9728 205.141L75.67 217.987L106.358 217.519V208.255L109.154 208.411L114.67 189.259L112.417 189.337L107.523 204.518C107.212 205.608 106.202 206.231 105.192 206.153Z" fill="#261F30"/>
<path d="M102.318 220.634L85.3035 220.556L85.3812 204.207L104.182 206.075L104.104 218.921C104.104 219.855 103.328 220.634 102.318 220.634Z" fill="#FFA06C"/>
<path d="M130.985 190.738L127.722 189.415L164.703 220.166L176.356 220.556C172.938 219.621 169.675 218.064 166.645 215.807L130.985 190.738Z" fill="#261F30"/>
<path d="M65.4926 220.4L85.7697 220.556L85.8474 208.722L73.0285 208.644C68.911 208.644 65.5703 211.914 65.5703 216.04L65.4926 220.4Z" fill="#FFA06C"/>
<path d="M65.3992 221.236L104.089 221.476L104.107 218.595L65.417 218.355L65.3992 221.236Z" fill="#F7EEE6"/>
<path d="M84.4489 209.034C84.8374 209.111 85.1481 208.722 84.9928 208.411C84.2936 207.009 82.7398 204.44 81.419 205.997C79.9429 207.554 82.8951 208.644 84.4489 209.034Z" stroke="#EAEAEA" stroke-width="0.75" stroke-miterlimit="10" stroke-linecap="round" stroke-linejoin="round"/>
<path d="M90.3534 208.333C90.198 205.842 86.8573 207.399 85.2258 208.333C84.9928 208.489 84.9151 208.8 84.9928 209.034C85.0704 209.111 85.1481 209.267 85.3035 209.267C87.0904 209.89 90.5087 210.824 90.3534 208.333Z" stroke="#EAEAEA" stroke-width="0.75" stroke-miterlimit="10" stroke-linecap="round" stroke-linejoin="round"/>
<path d="M84.8374 209.189C84.8374 209.189 84.4489 212.303 86.7796 213.627" stroke="#EAEAEA" stroke-width="0.75" stroke-miterlimit="10" stroke-linecap="round" stroke-linejoin="round"/>
<path d="M94.3932 210.513C94.3932 212.459 95.947 214.016 97.8116 214.016C99.7538 214.016 101.308 212.459 101.308 210.591C101.308 208.644 99.7538 207.087 97.8893 207.087C96.0247 207.087 94.4709 208.644 94.3932 210.513Z" stroke="#EAEAEA" stroke-width="0.75" stroke-miterlimit="10" stroke-linecap="round" stroke-linejoin="round"/>
<path d="M151.961 159.675L207.821 147.686L206.888 137.409L151.961 159.675Z" fill="#213338"/>
<path d="M149.553 160.921L144.503 147.452C144.969 145.895 144.193 146.907 143.183 145.74L139.143 145.35C137.822 143.871 135.724 143.248 133.627 143.871L128.888 145.195C127.101 145.662 125.625 147.063 125.003 148.776L123.682 152.435C123.216 153.681 124.071 154.926 125.392 154.848C125.78 154.848 126.168 154.693 126.402 154.381L127.567 153.291L127.411 154.148C126.635 157.807 128.81 161.388 132.384 162.322C134.404 162.867 147.844 159.364 149.553 160.921Z" fill="#FFC5A6"/>
<path d="M119.409 144.027C119.254 143.093 118.788 142.314 118.089 141.691C118.089 141.613 118.011 141.613 118.011 141.536C115.214 137.876 109.931 137.176 106.28 139.979L102.939 142.548C99.2877 145.35 98.5885 150.644 101.385 154.303C101.618 154.615 101.851 154.77 102.162 154.926C103.017 156.016 104.415 156.639 105.891 156.405C107.911 156.094 109.31 154.303 109.232 152.279C109.776 152.435 110.397 152.513 111.019 152.435C112.961 152.123 114.36 150.489 114.36 148.542C114.903 148.698 115.447 148.698 115.991 148.62C118.244 148.231 119.72 146.207 119.409 144.027Z" fill="#D85932"/>
<path d="M104.415 151.656L107.29 155.471" stroke="#4E180C" stroke-width="2" stroke-miterlimit="10" stroke-linecap="round"/>
<path d="M110.087 147.452L112.961 151.267" stroke="#4E180C" stroke-width="2" stroke-miterlimit="10" stroke-linecap="round"/>
<path d="M115.37 143.404L118.322 147.219" stroke="#4E180C" stroke-width="2" stroke-miterlimit="10" stroke-linecap="round"/>
<path d="M149.32 160.532L207.432 144.416C208.131 143.248 207.51 136.553 205.101 129.235L205.568 135.307C203.392 128.534 196.012 124.875 189.253 127.289L155.224 140.757L142.949 145.584L149.32 160.532Z" fill="#2B4047"/>
<path d="M185.524 33.2429C185.135 31.4523 184.125 29.8953 182.804 28.8054L182.96 28.3382C185.368 17.0497 179.93 10.5101 173.249 9.88724C170.452 6.46173 166.101 4.51542 161.44 5.06039L157.4 5.52751C156.701 4.59328 156.001 3.50334 154.914 2.80267C153.205 0.622807 150.408 -0.467126 147.533 0.0778408C143.493 0.934217 140.852 4.90469 141.706 8.95301C138.21 7.55167 133.782 7.1624 130.441 11.1329C126.479 15.804 131.918 20.9423 133.86 22.5772C133.86 22.655 133.86 22.7329 133.937 22.8107C133.937 22.8886 133.937 22.8886 133.937 22.9664C131.918 24.6792 130.908 27.404 131.529 30.1288C132.306 33.9436 135.88 36.5127 139.687 36.0456C141.862 36.9799 143.804 37.3691 143.804 37.3691L164.159 37.2134C164.159 37.2134 164.159 37.2134 164.159 37.2913C165.091 42.0403 169.753 45.0765 174.414 44.0644C175.89 43.753 177.288 43.0523 178.376 42.1181C178.842 42.1181 179.231 42.0403 179.697 41.9624C183.737 41.2617 186.3 37.2913 185.524 33.2429Z" fill="#441B14"/>
<path d="M183.426 39.9383L183.348 39.0819C182.96 34.4886 177.133 32.2309 174.025 35.8121C172.86 37.1356 172.239 38.7705 172.083 40.4832C171.928 41.8846 172.083 42.8188 170.762 41.3396C170.452 41.0282 170.452 40.1718 170.374 39.7047C170.141 38.5369 169.986 37.447 169.83 36.2792C169.442 33.7879 169.364 31.1409 168.276 28.8054C167.111 26.2362 164.625 24.4456 161.906 24.0564C159.109 23.5893 155.924 24.5235 153.282 25.3799H153.205C151.962 25.7691 150.485 26.0805 148.932 26.1584C147.999 28.3383 146.057 30.051 143.571 30.5181C142.561 30.7517 141.629 30.7517 140.696 30.5181L141.24 36.5127L142.639 52.7839C143.26 60.102 149.087 65.7074 156.157 66.4081L157.944 82.2899C158.487 87.3503 164.237 89.9195 168.432 87.1168L175.346 82.3678C180.163 79.098 182.416 73.1812 181.251 67.5758C179.464 59.4013 176.978 48.9691 176.978 48.9691L176.745 46.1664L178.531 46.0107C181.484 45.6993 183.659 42.9745 183.426 39.9383Z" fill="#FFC5A6"/>
<path opacity="0.46" d="M176.978 50.0591L176.667 46.0886L174.569 46.2443L174.88 49.9033C175.502 57.455 169.986 63.9946 162.45 64.6174L157.4 65.0067C149.864 65.6295 143.26 60.0242 142.639 52.4725L141.706 41.8067L142.639 52.7839C143.26 60.102 149.165 65.7852 156.234 66.3302H156.157C156.157 66.3302 156.545 69.9114 161.284 69.055C166.023 68.1987 169.364 67.0309 169.053 64.3839H168.976C174.181 61.8148 177.521 56.2872 176.978 50.0591Z" fill="#FF755F"/>
<path d="M178.687 37.5248L177.521 40.8725L179.541 41.5732" stroke="#FF755F" stroke-miterlimit="10" stroke-linecap="round"/>
<path d="M156.157 40.7168C155.613 40.7946 155.224 41.2618 155.302 41.8067C155.38 42.3517 155.846 42.741 156.312 42.741C156.856 42.6631 157.244 42.196 157.167 41.651C157.089 41.1061 156.623 40.7168 156.157 40.7168Z" fill="#441B14"/>
<path d="M145.591 42.196C145.047 42.2739 144.659 42.741 144.736 43.286C144.814 43.8309 145.28 44.2202 145.746 44.2202C146.29 44.1423 146.679 43.6752 146.601 43.1303C146.523 42.5853 146.057 42.1182 145.591 42.196Z" fill="#441B14"/>
<path d="M150.175 39.7047L149.009 45.9329C148.776 47.3342 150.33 48.2685 152.35 47.8792C152.894 47.7235 153.515 47.5678 154.214 47.3342" stroke="#FF755F" stroke-miterlimit="10" stroke-linecap="round"/>
<path d="M160.507 56.9101C160.507 56.9101 158.798 56.2094 157.633 57.6108" stroke="#FF755F" stroke-miterlimit="10" stroke-linecap="round"/>
<path d="M161.207 35.2671C160.663 35.4228 159.964 35.2671 159.342 35.1114C158.643 34.9557 158.021 34.8779 157.4 34.7222C156.778 34.6443 156.157 34.5665 155.458 34.4886C154.758 34.4108 154.059 34.4108 153.593 34.0993C153.127 33.7879 152.971 33.1651 153.671 32.4644C154.37 31.8416 155.924 31.2188 157.866 31.5302C159.808 31.8416 161.129 32.8537 161.517 33.7101C162.061 34.5665 161.75 35.1114 161.207 35.2671Z" fill="#441B14"/>
<path d="M142.639 36.357C143.105 36.357 143.571 36.2013 144.037 35.9678C144.503 35.8121 144.969 35.5785 145.358 35.4228C145.746 35.2671 146.29 35.1114 146.756 35.0336C147.222 34.8779 147.766 34.8 148.077 34.4886C148.388 34.1772 148.388 33.7101 147.766 33.3208C147.222 32.9315 145.979 32.698 144.581 33.1651C143.183 33.6322 142.406 34.5664 142.173 35.2671C141.939 35.8899 142.25 36.2792 142.639 36.357Z" fill="#441B14"/>
<path d="M146.912 44.3758C146.912 44.3758 145.669 43.3637 144.193 44.8429" stroke="#FF755F" stroke-miterlimit="10" stroke-linecap="round"/>
<path d="M157.788 42.8188C157.788 42.8188 156.545 41.8067 155.069 43.2859" stroke="#FF755F" stroke-miterlimit="10" stroke-linecap="round"/>
<path d="M159.964 46.4778C159.964 46.4778 157.089 48.5799 154.059 49.6698C150.952 50.7597 154.215 55.1194 158.954 53.7181C163.693 52.2389 162.45 45.4658 159.964 46.4778Z" fill="white"/>
</g>
<defs>
<clipPath id="clip0">
<rect width="226" height="232" fill="white"/>
</clipPath>
</defs>
</svg>
