<svg width="60" height="60" viewBox="0 0 60 60" fill="none" xmlns="http://www.w3.org/2000/svg">
<path fill-rule="evenodd" clip-rule="evenodd" d="M17.3597 59.1667H42.6374C52.5257 59.1667 59.1667 52.2305 59.1667 41.9096V18.0905C59.1667 7.76954 52.5257 0.833374 42.6403 0.833374H17.3597C7.47426 0.833374 0.833313 7.76954 0.833313 18.0905V41.9096C0.833313 52.2305 7.47426 59.1667 17.3597 59.1667ZM19.7883 27.0834C15.7673 27.0834 12.5 23.8117 12.5 19.7917C12.5 15.7718 15.7673 12.5 19.7883 12.5C23.8064 12.5 27.0767 15.7718 27.0767 19.7917C27.0767 23.8117 23.8064 27.0834 19.7883 27.0834ZM52.8107 38.5574C53.7874 41.0617 53.28 44.0717 52.2358 46.5519C50.9981 49.5017 48.6283 51.7351 45.6426 52.7103C44.3169 53.1437 42.9267 53.3334 41.5394 53.3334H16.9585C14.5125 53.3334 12.348 52.7464 10.5735 51.6538C9.46195 50.9675 9.26545 49.3843 10.0896 48.3579C11.4681 46.6422 12.829 44.9205 14.2016 43.1837C16.8177 39.8607 18.5804 38.8975 20.5396 39.7433C21.3345 40.0925 22.1322 40.6162 22.9534 41.1701C25.1414 42.657 28.1829 44.7008 32.1892 42.4824C34.9309 40.9469 36.5211 38.3129 37.9058 36.0192L37.929 35.9809C38.0271 35.82 38.1244 35.659 38.2213 35.4986L38.2214 35.4986C38.6867 34.7285 39.1459 33.9688 39.6653 33.2689C40.3164 32.393 42.7302 29.6539 45.8567 31.6044C47.8482 32.8324 49.5229 34.4939 51.3149 36.2728C51.9983 36.9531 52.4851 37.7267 52.8107 38.5574Z" fill="#9FA5C0"/>
</svg>
